<svg width="39" height="96" viewBox="0 0 39 96" fill="none" xmlns="http://www.w3.org/2000/svg">
<path d="M19.2776 63.4203C8.65519 63.4203 0.00219727 54.7673 0.00219727 44.1449C0.00219727 33.5225 8.65519 24.8695 19.2776 24.8695C29.9001 24.8695 38.553 33.5225 38.553 44.1449C38.553 54.7883 29.9001 63.4203 19.2776 63.4203ZM19.2776 26.3361C9.45135 26.3361 1.46881 34.3186 1.46881 44.1449C1.46881 53.9712 9.45135 61.9537 19.2776 61.9537C29.1039 61.9537 37.0864 53.9712 37.0864 44.1449C37.0864 34.3186 29.0829 26.3361 19.2776 26.3361Z" fill="white"/>
<path d="M20.0109 6.72545H18.5443V96H20.0109V6.72545Z" fill="url(#paint0_linear)"/>
<path d="M19.2776 38.5509C8.65519 38.5509 0.00219727 29.8979 0.00219727 19.2754C0.00219727 8.65299 8.65519 0 19.2776 0C29.9001 0 38.553 8.65299 38.553 19.2754C38.553 29.9188 29.9001 38.5509 19.2776 38.5509ZM19.2776 1.46661C9.45135 1.46661 1.46881 9.44915 1.46881 19.2754C1.46881 29.1017 9.45135 37.0842 19.2776 37.0842C29.1039 37.0842 37.0864 29.1017 37.0864 19.2754C37.0864 9.4701 29.0829 1.46661 19.2776 1.46661Z" fill="url(#paint1_linear)"/>
<path d="M19.2776 47.8743C21.3373 47.8743 23.007 46.2046 23.007 44.1449C23.007 42.0852 21.3373 40.4155 19.2776 40.4155C17.218 40.4155 15.5482 42.0852 15.5482 44.1449C15.5482 46.2046 17.218 47.8743 19.2776 47.8743Z" fill="white"/>
<path d="M36.2065 68.2182H2.34875V69.6848H36.2065V68.2182Z" fill="url(#paint2_linear)"/>
<defs>
<linearGradient id="paint0_linear" x1="19.2697" y1="96.0047" x2="19.2697" y2="6.72402" gradientUnits="userSpaceOnUse">
<stop stop-color="white" stop-opacity="0"/>
<stop offset="0.0698933" stop-color="white" stop-opacity="0.3524"/>
<stop offset="0.1983" stop-color="white"/>
<stop offset="0.651042" stop-color="white"/>
<stop offset="0.708333" stop-color="white"/>
<stop offset="0.8352" stop-color="white"/>
<stop offset="0.8812" stop-color="white" stop-opacity="0.7206"/>
<stop offset="0.9311" stop-color="white" stop-opacity="0.4178"/>
<stop offset="1" stop-color="white" stop-opacity="0"/>
</linearGradient>
<linearGradient id="paint1_linear" x1="19.2697" y1="0.0103501" x2="19.2697" y2="38.5611" gradientUnits="userSpaceOnUse">
<stop offset="0.2011" stop-color="white" stop-opacity="0"/>
<stop offset="0.3843" stop-color="white" stop-opacity="0.4585"/>
<stop offset="0.6006" stop-color="white"/>
</linearGradient>
<linearGradient id="paint2_linear" x1="2.33916" y1="68.9511" x2="36.2001" y2="68.9511" gradientUnits="userSpaceOnUse">
<stop stop-color="white" stop-opacity="0"/>
<stop offset="0.1161" stop-color="white" stop-opacity="0.3746"/>
<stop offset="0.2782" stop-color="white"/>
<stop offset="0.432292" stop-color="white"/>
<stop offset="0.515625" stop-color="white"/>
<stop offset="0.7067" stop-color="white"/>
<stop offset="0.7886" stop-color="white" stop-opacity="0.7207"/>
<stop offset="0.882" stop-color="white" stop-opacity="0.4024"/>
<stop offset="1" stop-color="white" stop-opacity="0"/>
</linearGradient>
</defs>
</svg>
